<svg width="500" height="500" version="1.1" xmlns="http://www.w3.org/2000/svg" desc="Created with imagetracer.js version 1.2.6" ><path fill="rgb(243,244,234)" stroke="rgb(243,244,234)" stroke-width="1" opacity="1" d="M 201.5 152 L 208 152.5 L 201.5 153 L 201.5 152 Z " /><path fill="rgb(243,244,234)" stroke="rgb(243,244,234)" stroke-width="1" opacity="1" d="M 214.5 152 L 219 152.5 L 214.5 153 L 214.5 152 Z " /><path fill="rgb(243,244,234)" stroke="rgb(243,244,234)" stroke-width="1" opacity="1" d="M 195.5 153 L 200 153.5 L 192.5 155 L 181.5 160 L 171 168 Q 162.7 177.8 158 192.5 L 155 207.5 L 154.5 229 L 154 207.5 L 155 206.5 L 156 195.5 L 161 181.5 Q 166.4 170.4 175.5 163 Q 183.4 155.9 195.5 153 Z " /><path fill="rgb(243,244,234)" stroke="rgb(243,244,234)" stroke-width="1" opacity="1" d="M 220.5 153 L 226.5 154 L 240.5 163 L 247.5 155 L 249.5 154 L 247.5 157 L 243 160.5 L 240.5 164 L 232.5 158 L 223.5 154 L 220.5 154 L 220.5 153 Z " /><path fill="rgb(243,244,234)" stroke="rgb(243,244,234)" stroke-width="1" opacity="1" d="M 211.5 156 L 219 156.5 Q 202.6 156.6 197 167.5 L 192.5 176 L 192 174.5 Q 195.2 166.2 201.5 161 L 211.5 156 Z " /><path fill="rgb(243,244,234)" stroke="rgb(243,244,234)" stroke-width="1" opacity="1" d="M 220.5 157 L 223 157.5 L 220.5 158 L 220.5 157 Z " /><path fill="rgb(243,244,234)" stroke="rgb(243,244,234)" stroke-width="1" opacity="1" d="M 224.5 158 L 229.5 160 L 237 166 L 244 176.5 L 247 185 Q 253.1 186.8 255 183.5 L 255.5 158 L 256 184.5 L 254.5 186 L 246 186 L 243 176.5 L 231.5 163 L 224.5 159 L 224.5 158 Z " /><path fill="rgb(243,244,234)" stroke="rgb(243,244,234)" stroke-width="1" opacity="1" d="M 191.5 177 L 192 178.5 L 190 182.5 L 187.5 200 L 187 192.5 L 191.5 177 Z " /><path fill="rgb(243,244,234)" stroke="rgb(243,244,234)" stroke-width="1" opacity="1" d="M 259.5 195 L 261 198.5 L 260 198.5 L 259.5 195 Z " /><path fill="rgb(243,244,234)" stroke="rgb(243,244,234)" stroke-width="1" opacity="1" d="M 261.5 200 L 263 203.5 L 262 203.5 L 261.5 200 Z " /><path fill="rgb(243,244,234)" stroke="rgb(243,244,234)" stroke-width="1" opacity="1" d="M 186.5 202 L 187 234.5 L 186 234.5 L 186.5 202 Z " /><path fill="rgb(243,244,234)" stroke="rgb(243,244,234)" stroke-width="1" opacity="1" d="M 243.5 211 L 244 212.5 L 242.5 215 L 242 213.5 L 243.5 211 Z " /><path fill="rgb(243,244,234)" stroke="rgb(243,244,234)" stroke-width="1" opacity="1" d="M 266.5 212 L 268 215.5 L 267 215.5 L 266.5 212 Z " /><path fill="rgb(243,244,234)" stroke="rgb(243,244,234)" stroke-width="1" opacity="1" d="M 269.5 219 L 271 222.5 L 270 222.5 L 269.5 219 Z " /><path fill="rgb(243,244,234)" stroke="rgb(243,244,234)" stroke-width="1" opacity="1" d="M 236.5 228 L 237 229.5 L 235.5 232 L 235 230.5 L 236.5 228 Z " /><path fill="rgb(243,244,234)" stroke="rgb(243,244,234)" stroke-width="1" opacity="1" d="M 155.5 232 Q 157.7 251.8 168 263.5 L 166 264 L 158 248.5 L 155 236.5 L 155.5 232 Z " /><path fill="rgb(243,244,234)" stroke="rgb(243,244,234)" stroke-width="1" opacity="1" d="M 241.5 232 L 242 234 L 240 233.5 L 241.5 232 Z " /><path fill="rgb(243,244,234)" stroke="rgb(243,244,234)" stroke-width="1" opacity="1" d="M 234.5 233 L 235 234.5 L 233.5 237 L 233 235.5 L 234.5 233 Z " /><path fill="rgb(243,244,234)" stroke="rgb(243,244,234)" stroke-width="1" opacity="1" d="M 242.5 235 L 244 238.5 L 243 238.5 L 242.5 235 Z " /><path fill="rgb(243,244,234)" stroke="rgb(243,244,234)" stroke-width="1" opacity="1" d="M 187.5 237 L 188 242.5 L 187 242.5 L 187.5 237 Z " /><path fill="rgb(243,244,234)" stroke="rgb(243,244,234)" stroke-width="1" opacity="1" d="M 231.5 241 L 231 242.5 L 230.5 244 L 230 242.5 L 231.5 241 Z " /><path fill="rgb(243,244,234)" stroke="rgb(243,244,234)" stroke-width="1" opacity="1" d="M 245.5 242 L 247 245.5 L 246 245.5 L 245.5 242 Z " /><path fill="rgb(243,244,234)" stroke="rgb(243,244,234)" stroke-width="1" opacity="1" d="M 188.5 244 L 189 248.5 L 188 248.5 L 188.5 244 Z " /><path fill="rgb(243,244,234)" stroke="rgb(243,244,234)" stroke-width="1" opacity="1" d="M 280.5 246 L 283 251.5 L 282 251.5 L 280.5 246 Z " /><path fill="rgb(243,244,234)" stroke="rgb(243,244,234)" stroke-width="1" opacity="1" d="M 189.5 250 L 191 255.5 L 190 255.5 L 189.5 250 Z " /><path fill="rgb(243,244,234)" stroke="rgb(243,244,234)" stroke-width="1" opacity="1" d="M 227.5 250 L 228 251.5 L 226.5 254 L 226 252.5 L 227.5 250 Z " /><path fill="rgb(243,244,234)" stroke="rgb(243,244,234)" stroke-width="1" opacity="1" d="M 233.5 250 L 234 251.5 L 232.5 254 L 232 252.5 L 233.5 250 Z " /><path fill="rgb(243,244,234)" stroke="rgb(243,244,234)" stroke-width="1" opacity="1" d="M 250.5 254 L 252 257.5 L 251 257.5 L 250.5 254 Z " /><path fill="rgb(243,244,234)" stroke="rgb(243,244,234)" stroke-width="1" opacity="1" d="M 192.5 260 L 200 271.5 L 196 268.5 L 192 261.5 L 192.5 260 Z " /><path fill="rgb(243,244,234)" stroke="rgb(243,244,234)" stroke-width="1" opacity="1" d="M 229.5 260 L 230 261.5 L 227.5 266 L 227 264.5 L 229.5 260 Z " /><path fill="rgb(243,244,234)" stroke="rgb(243,244,234)" stroke-width="1" opacity="1" d="M 222.5 262 L 223 263.5 L 221.5 266 L 221 264.5 L 222.5 262 Z " /><path fill="rgb(243,244,234)" stroke="rgb(243,244,234)" stroke-width="1" opacity="1" d="M 247.5 264 L 249 267.5 L 248 267.5 L 247.5 266 L 242.5 272 Q 248.5 273 249.5 269 L 250 271 L 246.5 273 L 240.5 273 L 241 271.5 L 243 268.5 L 247.5 264 Z " /><path fill="rgb(243,244,234)" stroke="rgb(243,244,234)" stroke-width="1" opacity="1" d="M 168.5 265 Q 170.8 264.3 170 266.5 Q 176.8 275.2 188 279.5 L 186.5 280 L 173 272.5 L 174 271.5 L 168.5 265 Z " /><path fill="rgb(243,244,234)" stroke="rgb(243,244,234)" stroke-width="1" opacity="1" d="M 220.5 267 L 221 268.5 L 219.5 271 L 219 269.5 L 220.5 267 Z " /><path fill="rgb(243,244,234)" stroke="rgb(243,244,234)" stroke-width="1" opacity="1" d="M 289.5 267 L 291 270.5 L 290 270.5 L 289.5 267 Z " /><path fill="rgb(243,244,234)" stroke="rgb(243,244,234)" stroke-width="1" opacity="1" d="M 291.5 272 L 293 275.5 L 292 275.5 L 291.5 272 Z " /><path fill="rgb(243,244,234)" stroke="rgb(243,244,234)" stroke-width="1" opacity="1" d="M 200.5 273 L 206.5 277 L 209 277 L 210 279.5 L 206.5 285 L 190.5 282 L 189 280.5 L 190.5 280 L 194.5 282 L 205.5 284 L 208 278 Q 202.5 277.2 200.5 273 Z " /><path fill="rgb(243,244,234)" stroke="rgb(243,244,234)" stroke-width="1" opacity="1" d="M 222.5 277 L 223 279 L 259.5 279 L 260.5 278 L 259.5 280 L 222.5 280 L 222.5 277 Z " /><path fill="rgb(243,244,234)" stroke="rgb(243,244,234)" stroke-width="1" opacity="1" d="M 213.5 284 L 214 285.5 L 212.5 288 L 212 286.5 L 213.5 284 Z " /><path fill="rgb(243,244,234)" stroke="rgb(243,244,234)" stroke-width="1" opacity="1" d="M 262.5 284 L 264 286.5 L 262 285.5 L 262.5 284 Z " /><path fill="rgb(243,244,234)" stroke="rgb(243,244,234)" stroke-width="1" opacity="1" d="M 296.5 284 L 299 289.5 L 298 289.5 L 296.5 284 Z " /><path fill="rgb(243,244,234)" stroke="rgb(243,244,234)" stroke-width="1" opacity="1" d="M 217.5 289 L 218 290.5 L 216.5 293 L 216 291.5 L 217.5 289 Z " /><path fill="rgb(243,244,234)" stroke="rgb(243,244,234)" stroke-width="1" opacity="1" d="M 210.5 291 L 211 292.5 L 209.5 296 L 209 293.5 L 210.5 291 Z " /><path fill="rgb(243,244,234)" stroke="rgb(243,244,234)" stroke-width="1" opacity="1" d="M 299.5 291 L 301 294.5 L 300 294.5 L 299.5 291 Z " /><path fill="rgb(243,244,234)" stroke="rgb(243,244,234)" stroke-width="1" opacity="1" d="M 301.5 296 L 303 299.5 L 302 299.5 L 301.5 296 Z " /><path fill="rgb(243,244,234)" stroke="rgb(243,244,234)" stroke-width="1" opacity="1" d="M 213.5 299 L 214 300.5 L 212.5 303 L 212 301.5 L 213.5 299 Z " /><path fill="rgb(243,244,234)" stroke="rgb(243,244,234)" stroke-width="1" opacity="1" d="M 270.5 302 L 272 305.5 L 270 304.5 L 270.5 302 Z " /><path fill="rgb(243,244,234)" stroke="rgb(243,244,234)" stroke-width="1" opacity="1" d="M 211.5 304 L 212 305.5 L 210.5 308 L 210 306.5 L 211.5 304 Z " /><path fill="rgb(243,244,234)" stroke="rgb(243,244,234)" stroke-width="1" opacity="1" d="M 304.5 304 L 306 306.5 L 305 306.5 L 304.5 304 Z " /><path fill="rgb(243,244,234)" stroke="rgb(243,244,234)" stroke-width="1" opacity="1" d="M 203.5 308 L 204 309.5 L 202.5 312 L 202 310.5 L 203.5 308 Z " /><path fill="rgb(243,244,234)" stroke="rgb(243,244,234)" stroke-width="1" opacity="1" d="M 306.5 308 L 308 311.5 L 307 311.5 L 306.5 308 Z " /><path fill="rgb(243,244,234)" stroke="rgb(243,244,234)" stroke-width="1" opacity="1" d="M 209.5 309 L 210 310.5 L 208 311.5 L 209.5 309 Z " /><path fill="rgb(243,244,234)" stroke="rgb(243,244,234)" stroke-width="1" opacity="1" d="M 273.5 309 L 274.5 311 L 273.5 309 Z " /><path fill="rgb(243,244,234)" stroke="rgb(243,244,234)" stroke-width="1" opacity="1" d="M 275.5 312 L 283 318.5 L 281.5 319 L 275.5 312 Z " /><path fill="rgb(243,244,234)" stroke="rgb(243,244,234)" stroke-width="1" opacity="1" d="M 211.5 314 L 215 315.5 L 213.5 316 L 211.5 314 Z " /><path fill="rgb(243,244,234)" stroke="rgb(243,244,234)" stroke-width="1" opacity="1" d="M 194.5 315 L 196 315.5 L 192.5 317 L 192.5 316 L 194.5 315 Z " /><path fill="rgb(243,244,234)" stroke="rgb(243,244,234)" stroke-width="1" opacity="1" d="M 314.5 317 L 319 318 L 319 322 L 317.5 322 L 318 320.5 L 316.5 318 Q 313.5 318.5 314.5 317 Z " /><path fill="rgb(243,244,234)" stroke="rgb(243,244,234)" stroke-width="1" opacity="1" d="M 187.5 318 L 189 321.5 L 187 322 L 187.5 318 Z " /><path fill="rgb(243,244,234)" stroke="rgb(243,244,234)" stroke-width="1" opacity="1" d="M 221.5 318 L 222 322 L 220 321.5 L 221.5 318 Z " /><path fill="rgb(243,244,234)" stroke="rgb(243,244,234)" stroke-width="1" opacity="1" d="M 286.5 320 Q 288.8 319.3 288 321.5 L 286.5 320 Z " /><path fill="rgb(243,244,234)" stroke="rgb(243,244,234)" stroke-width="1" opacity="1" d="M 190.5 321 L 219 321.5 L 190.5 322 L 190.5 321 Z " /><path fill="rgb(243,244,234)" stroke="rgb(243,244,234)" stroke-width="1" opacity="1" d="M 290.5 321 L 316 321.5 L 290.5 322 L 290.5 321 Z " /><path fill="rgb(254,254,254)" stroke="rgb(254,254,254)" stroke-width="1" opacity="1" d="M 499.5 0 L 500 495.5 L 499 495.5 L 499.5 0 Z " /><path fill="rgb(254,254,254)" stroke="rgb(254,254,254)" stroke-width="1" opacity="1" d="M 255.5 143 Q 258.5 144.5 255.5 146 Q 252.5 144.5 255.5 143 Z " /><path fill="rgb(254,254,254)" stroke="rgb(254,254,254)" stroke-width="1" opacity="1" d="M 176 144 L 179 144.5 L 176 146 L 176 144 Z " /><path fill="rgb(254,254,254)" stroke="rgb(254,254,254)" stroke-width="1" opacity="1" d="M 185.5 144 L 186 146 L 184 145.5 L 185.5 144 Z " /><path fill="rgb(254,254,254)" stroke="rgb(254,254,254)" stroke-width="1" opacity="1" d="M 209 144 Q 214 142.8 215.5 146 L 223 146 L 222.5 148 L 212 148 L 212 146 Q 207.9 147.3 209 144 Z " /><path fill="rgb(254,254,254)" stroke="rgb(254,254,254)" stroke-width="1" opacity="1" d="M 247.5 144 Q 251.3 143 250 146 L 247.5 144 Z " /><path fill="rgb(254,254,254)" stroke="rgb(254,254,254)" stroke-width="1" opacity="1" d="M 244.5 146 L 244.5 148 L 249 148.5 L 244.5 152 L 243 149.5 L 244.5 146 Z " /><path fill="rgb(254,254,254)" stroke="rgb(254,254,254)" stroke-width="1" opacity="1" d="M 227.5 147 L 232 148.5 L 228.5 149 L 227.5 147 Z " /><path fill="rgb(254,254,254)" stroke="rgb(254,254,254)" stroke-width="1" opacity="1" d="M 224 148 Q 227.1 147.3 226.5 150 L 232.5 150 Q 234.2 146.5 240 148 Q 241.3 151.7 235.5 150 L 232.5 153 L 231.5 152 L 219 150.5 L 224 150 L 224 148 Z " /><path fill="rgb(254,254,254)" stroke="rgb(254,254,254)" stroke-width="1" opacity="1" d="M 253.5 148 Q 257.9 146.5 257 149.5 L 255.5 151 L 253.5 148 Z " /><path fill="rgb(254,254,254)" stroke="rgb(254,254,254)" stroke-width="1" opacity="1" d="M 186 150 L 192 150.5 Q 190.6 153.3 186 152 L 186 150 Z " /><path fill="rgb(254,254,254)" stroke="rgb(254,254,254)" stroke-width="1" opacity="1" d="M 206.5 150 L 213 150.5 L 206.5 151 L 206.5 150 Z " /><path fill="rgb(254,254,254)" stroke="rgb(254,254,254)" stroke-width="1" opacity="1" d="M 180.5 152 L 184 152.5 L 181.5 156 L 184 156.5 L 180.5 158 L 180.5 156 L 176 158 L 176 156 Q 178.7 157.1 178 154.5 L 180.5 152 Z " /><path fill="rgb(254,254,254)" stroke="rgb(254,254,254)" stroke-width="1" opacity="1" d="M 239.5 152 Q 242.8 150.9 242 153.5 L 238.5 158 L 237 154.5 L 240 153.5 L 239.5 152 Z " /><path fill="rgb(254,254,254)" stroke="rgb(254,254,254)" stroke-width="1" opacity="1" d="M 228.5 153 L 229.5 155 L 228.5 153 Z " /><path fill="rgb(254,254,254)" stroke="rgb(254,254,254)" stroke-width="1" opacity="1" d="M 246.5 153 L 248 153.5 L 246 154.5 L 246.5 156 L 245.5 155 L 243 156.5 L 246.5 153 Z " /><path fill="rgb(254,254,254)" stroke="rgb(254,254,254)" stroke-width="1" opacity="1" d="M 170.5 159 Q 173.5 158.2 172 162 Q 167.5 160.3 169 165.5 L 168 168 L 161 173.5 L 159.5 177 L 159 175.5 L 159 173.5 Q 157.9 170.2 160.5 171 L 164 166.5 L 164 164.5 L 164.5 163 L 165 164.5 L 164.5 166 Q 166.8 166.8 166 164.5 L 167 162 Q 169.7 163.1 169 160.5 L 170.5 159 Z " /><path fill="rgb(254,254,254)" stroke="rgb(254,254,254)" stroke-width="1" opacity="1" d="M 209.5 159 L 212 159.5 L 209.5 160 L 209.5 159 Z " /><path fill="rgb(254,254,254)" stroke="rgb(254,254,254)" stroke-width="1" opacity="1" d="M 224.5 159 L 225.5 161 Q 222.7 161.7 224.5 159 Z " /><path fill="rgb(254,254,254)" stroke="rgb(254,254,254)" stroke-width="1" opacity="1" d="M 240.5 160 L 241.5 162 L 240.5 160 Z " /><path fill="rgb(254,254,254)" stroke="rgb(254,254,254)" stroke-width="1" opacity="1" d="M 206 161 Q 209 159.8 208 163.5 L 206 164.5 L 206 162.5 L 206 161 Z " /><path fill="rgb(254,254,254)" stroke="rgb(254,254,254)" stroke-width="1" opacity="1" d="M 227.5 162 L 230 165.5 Q 228 168.8 223 168 L 224 164 L 227.5 162 Z M 227 164 L 228 166 Q 229 163 227 164 Z " /><path fill="rgb(254,254,254)" stroke="rgb(254,254,254)" stroke-width="1" opacity="1" d="M 201.5 165 L 204 165.5 Q 202 170 200 166.5 L 201.5 165 Z " /><path fill="rgb(254,254,254)" stroke="rgb(254,254,254)" stroke-width="1" opacity="1" d="M 205.5 166 L 207.5 169 L 200.5 172 L 200 170 Q 203.8 170.8 205 167.5 L 205.5 166 Z " /><path fill="rgb(254,254,254)" stroke="rgb(254,254,254)" stroke-width="1" opacity="1" d="M 229 168 L 232 169.5 L 231.5 172 L 229 168 Z " /><path fill="rgb(254,254,254)" stroke="rgb(254,254,254)" stroke-width="1" opacity="1" d="M 197.5 170 L 199 172.5 L 197 173.5 L 198 171.5 L 197.5 170 Z " /><path fill="rgb(254,254,254)" stroke="rgb(254,254,254)" stroke-width="1" opacity="1" d="M 224 170 L 228 172.5 L 224 171.5 L 224 170 Z " /><path fill="rgb(254,254,254)" stroke="rgb(254,254,254)" stroke-width="1" opacity="1" d="M 234.5 170 L 234 171.5 L 235.5 174 L 237 173.5 L 236 176 L 233.5 177 L 232 173.5 L 234.5 170 Z " /><path fill="rgb(254,254,254)" stroke="rgb(254,254,254)" stroke-width="1" opacity="1" d="M 165.5 171 L 164.5 173 L 165.5 171 Z " /><path fill="rgb(254,254,254)" stroke="rgb(254,254,254)" stroke-width="1" opacity="1" d="M 239.5 174 L 240.5 176 L 239.5 174 Z " /><path fill="rgb(254,254,254)" stroke="rgb(254,254,254)" stroke-width="1" opacity="1" d="M 150 176 Q 154.5 174.5 153 179 Q 148.5 180.5 150 176 Z " /><path fill="rgb(254,254,254)" stroke="rgb(254,254,254)" stroke-width="1" opacity="1" d="M 154.5 180 L 154 181.5 Q 154.6 186.9 153 189 L 149.5 187 L 146 189.5 Q 144.8 183.3 148.5 182 L 150 185 Q 152.7 186.1 152 183.5 L 154.5 180 Z " /><path fill="rgb(254,254,254)" stroke="rgb(254,254,254)" stroke-width="1" opacity="1" d="M 190.5 182 L 193 183.5 L 191.5 184 L 190.5 182 Z " /><path fill="rgb(254,254,254)" stroke="rgb(254,254,254)" stroke-width="1" opacity="1" d="M 239 182 L 242 182 L 242 185 Q 244.7 183.9 244 186.5 L 244.5 188 Q 242.3 187.3 243 189.5 L 240.5 191 L 240.5 190 L 242 189.5 L 239 187.5 L 240.5 187 L 242 187.5 L 241.5 185 L 239 186 L 239 182 Z " /><path fill="rgb(254,254,254)" stroke="rgb(254,254,254)" stroke-width="1" opacity="1" d="M 152.5 190 L 154 195.5 Q 151.3 196.6 152 200 L 154 200.5 L 152 201 L 151.5 208 L 150 200.5 L 148 197.5 L 148 193 Q 145.3 194.1 146 191.5 L 149 193.5 Q 148.3 195.8 150.5 195 L 152.5 190 Z " /><path fill="rgb(254,254,254)" stroke="rgb(254,254,254)" stroke-width="1" opacity="1" d="M 191.5 190 L 192 191.5 L 190.5 195 L 190 192.5 L 191.5 190 Z " /><path fill="rgb(254,254,254)" stroke="rgb(254,254,254)" stroke-width="1" opacity="1" d="M 243 192 L 247 192 L 247 193.5 L 244.5 195 L 243 192 Z " /><path fill="rgb(254,254,254)" stroke="rgb(254,254,254)" stroke-width="1" opacity="1" d="M 262 192 Q 265.3 190.7 264 195.5 L 262 194.5 L 262 192 Z " /><path fill="rgb(254,254,254)" stroke="rgb(254,254,254)" stroke-width="1" opacity="1" d="M 270 192 Q 273.7 190.8 272 196 Q 268.3 197.2 270 192 Z " /><path fill="rgb(254,254,254)" stroke="rgb(254,254,254)" stroke-width="1" opacity="1" d="M 243 196 L 247 196.5 Q 245 201 243 197.5 L 243 196 Z " /><path fill="rgb(254,254,254)" stroke="rgb(254,254,254)" stroke-width="1" opacity="1" d="M 245.5 202 L 246.5 204 L 244 203.5 L 245.5 202 Z " /><path fill="rgb(254,254,254)" stroke="rgb(254,254,254)" stroke-width="1" opacity="1" d="M 265.5 202 L 266 207 L 269 208.5 L 268.5 212 L 265 206.5 L 265.5 202 Z " /><path fill="rgb(254,254,254)" stroke="rgb(254,254,254)" stroke-width="1" opacity="1" d="M 146.5 203 L 150 208.5 L 148.5 208 L 146 208 L 146.5 203 Z " /><path fill="rgb(254,254,254)" stroke="rgb(254,254,254)" stroke-width="1" opacity="1" d="M 144.5 204 L 145 207.5 L 144 207.5 L 144.5 204 Z " /><path fill="rgb(254,254,254)" stroke="rgb(254,254,254)" stroke-width="1" opacity="1" d="M 188.5 206 L 189 208.5 L 188 208.5 L 188.5 206 Z " /><path fill="rgb(254,254,254)" stroke="rgb(254,254,254)" stroke-width="1" opacity="1" d="M 150.5 219 L 151 223.5 L 150 223.5 L 150.5 219 Z " /><path fill="rgb(254,254,254)" stroke="rgb(254,254,254)" stroke-width="1" opacity="1" d="M 144 220 Q 147.7 218.8 146 224 Q 142.3 225.2 144 220 Z " /><path fill="rgb(254,254,254)" stroke="rgb(254,254,254)" stroke-width="1" opacity="1" d="M 237.5 220 L 237 221.5 L 236.5 224 L 236 221.5 L 237.5 220 Z " /><path fill="rgb(254,254,254)" stroke="rgb(254,254,254)" stroke-width="1" opacity="1" d="M 227.5 224 L 230 225.5 Q 228.9 228.8 231.5 228 L 233 231.5 L 231.5 235 L 226 229.5 L 226 225.5 L 227.5 224 Z " /><path fill="rgb(254,254,254)" stroke="rgb(254,254,254)" stroke-width="1" opacity="1" d="M 280.5 224 L 281 227.5 L 280 227.5 L 280.5 224 Z " /><path fill="rgb(254,254,254)" stroke="rgb(254,254,254)" stroke-width="1" opacity="1" d="M 148.5 230 L 152 231.5 L 153 238.5 L 150 240 Q 151.5 234.6 148.5 233 L 147 239.5 L 147.5 241 L 144 232 Q 147.4 232.8 148.5 230 Z " /><path fill="rgb(254,254,254)" stroke="rgb(254,254,254)" stroke-width="1" opacity="1" d="M 224 236 L 226 236 L 226 240 L 227.5 240 L 226.5 242 L 225 241.5 L 225.5 240 L 224 240 L 224 236 Z " /><path fill="rgb(254,254,254)" stroke="rgb(254,254,254)" stroke-width="1" opacity="1" d="M 154.5 238 L 155 239.5 L 153.5 242 L 153 240.5 L 154.5 238 Z " /><path fill="rgb(254,254,254)" stroke="rgb(254,254,254)" stroke-width="1" opacity="1" d="M 230.5 239 L 231.5 241 L 230.5 239 Z " /><path fill="rgb(254,254,254)" stroke="rgb(254,254,254)" stroke-width="1" opacity="1" d="M 190 240 Q 194.1 238.3 193 242.5 L 191.5 244 L 189 243.5 L 190 240 Z " /><path fill="rgb(254,254,254)" stroke="rgb(254,254,254)" stroke-width="1" opacity="1" d="M 286.5 241 L 287.5 243 L 286.5 241 Z " /><path fill="rgb(254,254,254)" stroke="rgb(254,254,254)" stroke-width="1" opacity="1" d="M 148.5 243 L 152 244 L 154 251 Q 156.7 252.1 156 249.5 L 154.5 247 Q 157.5 247.5 157 251.5 L 155.5 256 L 148.5 243 Z " /><path fill="rgb(254,254,254)" stroke="rgb(254,254,254)" stroke-width="1" opacity="1" d="M 239.5 243 L 240 245.5 L 237.5 250 L 237 247.5 L 239.5 243 Z " /><path fill="rgb(254,254,254)" stroke="rgb(254,254,254)" stroke-width="1" opacity="1" d="M 279.5 243 L 282 243.5 L 279.5 244 L 279.5 243 Z " /><path fill="rgb(254,254,254)" stroke="rgb(254,254,254)" stroke-width="1" opacity="1" d="M 284.5 243 L 285.5 245 L 284.5 243 Z " /><path fill="rgb(254,254,254)" stroke="rgb(254,254,254)" stroke-width="1" opacity="1" d="M 282.5 245 Q 285.5 244.1 284 248.5 L 283 248.5 L 282.5 245 Z " /><path fill="rgb(254,254,254)" stroke="rgb(254,254,254)" stroke-width="1" opacity="1" d="M 226.5 246 L 227 247.5 L 224.5 253 L 224 250.5 L 226.5 246 Z " /><path fill="rgb(254,254,254)" stroke="rgb(254,254,254)" stroke-width="1" opacity="1" d="M 144 248 Q 148 246.6 146 253.5 L 147 255.5 L 146 255.5 Q 143 253.3 144 248 Z " /><path fill="rgb(254,254,254)" stroke="rgb(254,254,254)" stroke-width="1" opacity="1" d="M 159.5 253 L 161 256.5 L 160 256.5 L 159.5 253 Z " /><path fill="rgb(254,254,254)" stroke="rgb(254,254,254)" stroke-width="1" opacity="1" d="M 237 254 L 239 254.5 L 237 255.5 L 237 254 Z " /><path fill="rgb(254,254,254)" stroke="rgb(254,254,254)" stroke-width="1" opacity="1" d="M 195 255 L 200 256 L 199.5 260 L 196 259 Q 194.9 261.7 197.5 261 L 199.5 264 L 200.5 261 Q 202.8 261.8 202 265.5 L 200.5 265 L 194 259.5 L 195 255 Z " /><path fill="rgb(254,254,254)" stroke="rgb(254,254,254)" stroke-width="1" opacity="1" d="M 234.5 255 L 233 257.5 L 233 261.5 L 230 270.5 Q 230.8 272.8 234.5 272 Q 237 271 236 266.5 L 238 264.5 L 238 261 Q 241.8 260 243 262.5 L 242.5 265 L 240 265.5 L 240.5 267 L 239 266.5 L 241 271.5 L 239 270.5 L 238.5 269 L 238 271.5 L 239 274 L 225 273.5 Q 228.8 272.8 228 267.5 L 227.5 266 L 229 266.5 Q 227.9 263.2 230.5 264 Q 228.9 262.3 232 260.5 L 231 256.5 Q 232.8 258.1 234.5 255 Z " /><path fill="rgb(254,254,254)" stroke="rgb(254,254,254)" stroke-width="1" opacity="1" d="M 248.5 255 L 251 256 L 252 258.5 L 250.5 262 L 249 258.5 L 249.5 257 Q 246.7 257.7 248.5 255 Z " /><path fill="rgb(254,254,254)" stroke="rgb(254,254,254)" stroke-width="1" opacity="1" d="M 201.5 256 L 206.5 258 L 207 256 L 210 256 L 210 263.5 L 209 263.5 L 208 259 L 202.5 258 L 201.5 256 Z " /><path fill="rgb(254,254,254)" stroke="rgb(254,254,254)" stroke-width="1" opacity="1" d="M 292.5 256 L 294 256.5 L 294 266.5 L 293 266.5 L 290 258.5 L 292.5 256 Z " /><path fill="rgb(254,254,254)" stroke="rgb(254,254,254)" stroke-width="1" opacity="1" d="M 302.5 257 L 303 259.5 L 302 259.5 L 302.5 257 Z " /><path fill="rgb(254,254,254)" stroke="rgb(254,254,254)" stroke-width="1" opacity="1" d="M 161.5 259 L 162.5 261 L 161.5 259 Z " /><path fill="rgb(254,254,254)" stroke="rgb(254,254,254)" stroke-width="1" opacity="1" d="M 301.5 261 L 301 262.5 L 303 265.5 L 300 263.5 L 301.5 261 Z " /><path fill="rgb(254,254,254)" stroke="rgb(254,254,254)" stroke-width="1" opacity="1" d="M 206.5 262 L 208 264.5 L 206 265.5 L 206.5 262 Z " /><path fill="rgb(254,254,254)" stroke="rgb(254,254,254)" stroke-width="1" opacity="1" d="M 245.5 263 L 247 263.5 L 244.5 265 L 245.5 263 Z " /><path fill="rgb(254,254,254)" stroke="rgb(254,254,254)" stroke-width="1" opacity="1" d="M 164.5 264 L 167 267.5 L 164.5 269 L 162 268 Q 160.5 264.3 163.5 265 L 164.5 264 Z " /><path fill="rgb(254,254,254)" stroke="rgb(254,254,254)" stroke-width="1" opacity="1" d="M 254.5 265 L 256 270.5 L 255 270.5 L 254.5 267 L 253 267.5 L 254.5 265 Z " /><path fill="rgb(254,254,254)" stroke="rgb(254,254,254)" stroke-width="1" opacity="1" d="M 289.5 265 L 292 270.5 L 291 270.5 L 289.5 265 Z " /><path fill="rgb(254,254,254)" stroke="rgb(254,254,254)" stroke-width="1" opacity="1" d="M 243.5 266 L 241.5 269 L 243.5 266 Z " /><path fill="rgb(254,254,254)" stroke="rgb(254,254,254)" stroke-width="1" opacity="1" d="M 168.5 270 Q 170.8 269.3 170 271.5 L 168.5 277 L 167 271.5 L 168.5 270 Z " /><path fill="rgb(254,254,254)" stroke="rgb(254,254,254)" stroke-width="1" opacity="1" d="M 208.5 271 L 212.5 277 L 215 275.5 L 214.5 280 L 213.5 277 L 213 279 Q 210 280.3 211 276.5 L 208.5 275 Q 207.3 277.3 206 274.5 L 208.5 271 Z " /><path fill="rgb(254,254,254)" stroke="rgb(254,254,254)" stroke-width="1" opacity="1" d="M 253.5 271 L 254 272.5 L 251.5 274 L 250.5 272 L 253.5 271 Z " /><path fill="rgb(254,254,254)" stroke="rgb(254,254,254)" stroke-width="1" opacity="1" d="M 214 272 Q 217 271 216 274 Q 213 275 214 272 Z " /><path fill="rgb(254,254,254)" stroke="rgb(254,254,254)" stroke-width="1" opacity="1" d="M 173.5 273 L 176 274.5 L 174.5 275 L 173.5 273 Z " /><path fill="rgb(254,254,254)" stroke="rgb(254,254,254)" stroke-width="1" opacity="1" d="M 302 273 L 304 273 L 304 278 L 302 278 L 302 273 Z " /><path fill="rgb(254,254,254)" stroke="rgb(254,254,254)" stroke-width="1" opacity="1" d="M 241.5 275 L 244 275.5 L 241.5 276 L 241.5 275 Z " /><path fill="rgb(254,254,254)" stroke="rgb(254,254,254)" stroke-width="1" opacity="1" d="M 225.5 276 L 239 276.5 L 225.5 277 L 225.5 276 Z " /><path fill="rgb(254,254,254)" stroke="rgb(254,254,254)" stroke-width="1" opacity="1" d="M 176 277 L 179 278.5 Q 177.5 281.5 171.5 280 L 171.5 279 Q 177.3 280.7 176 277 Z " /><path fill="rgb(254,254,254)" stroke="rgb(254,254,254)" stroke-width="1" opacity="1" d="M 240.5 277 L 246 277.5 L 240.5 278 L 240.5 277 Z " /><path fill="rgb(254,254,254)" stroke="rgb(254,254,254)" stroke-width="1" opacity="1" d="M 181.5 280 L 186 280 Q 184.9 282.7 187.5 282 L 187.5 283 L 182.5 282 L 182.5 283 L 192 286 L 191.5 289 L 188 288 L 187.5 286 L 180 286 L 180 282 L 182 281.5 L 181.5 280 Z " /><path fill="rgb(254,254,254)" stroke="rgb(254,254,254)" stroke-width="1" opacity="1" d="M 211.5 281 Q 213.8 280.3 213 282.5 L 209 284 Q 207.9 281.3 210.5 282 L 211.5 281 Z " /><path fill="rgb(254,254,254)" stroke="rgb(254,254,254)" stroke-width="1" opacity="1" d="M 301.5 282 L 302 287 L 304 287.5 L 300.5 289 L 300.5 288 L 302 287.5 Q 299.6 286.1 301.5 282 Z " /><path fill="rgb(254,254,254)" stroke="rgb(254,254,254)" stroke-width="1" opacity="1" d="M 258.5 284 Q 263.3 282.7 262 286 Q 257.8 286.1 258.5 284 Z " /><path fill="rgb(254,254,254)" stroke="rgb(254,254,254)" stroke-width="1" opacity="1" d="M 197.5 285 Q 201.3 284.3 202 286.5 L 200.5 287 L 198.5 286 L 197.5 289 Q 193.3 290.1 195 286 L 197.5 285 Z " /><path fill="rgb(254,254,254)" stroke="rgb(254,254,254)" stroke-width="1" opacity="1" d="M 176 286 Q 180.1 284.7 179 288 Q 174.9 289.3 176 286 Z " /><path fill="rgb(254,254,254)" stroke="rgb(254,254,254)" stroke-width="1" opacity="1" d="M 221.5 286 L 223 288.5 L 221 287.5 L 221.5 286 Z " /><path fill="rgb(254,254,254)" stroke="rgb(254,254,254)" stroke-width="1" opacity="1" d="M 224.5 286 L 225.5 287 L 238.5 287 L 240 286.5 L 239.5 288 L 224 288 L 224.5 286 Z " /><path fill="rgb(254,254,254)" stroke="rgb(254,254,254)" stroke-width="1" opacity="1" d="M 258.5 287 L 262 287.5 L 258.5 288 L 258.5 287 Z " /><path fill="rgb(254,254,254)" stroke="rgb(254,254,254)" stroke-width="1" opacity="1" d="M 222 292 L 224 292 L 224 298 L 222 298 L 222 292 Z " /><path fill="rgb(254,254,254)" stroke="rgb(254,254,254)" stroke-width="1" opacity="1" d="M 256 296 L 258 296.5 L 258 305 L 255 303.5 L 256 296 Z " /><path fill="rgb(254,254,254)" stroke="rgb(254,254,254)" stroke-width="1" opacity="1" d="M 217.5 297 L 217 298.5 L 215.5 301 L 216 299.5 L 217.5 297 Z " /><path fill="rgb(254,254,254)" stroke="rgb(254,254,254)" stroke-width="1" opacity="1" d="M 265.5 299 Q 267.8 299.8 267 303.5 L 266 308.5 L 267.5 311 Q 263.8 309.8 265 303.5 L 265 301.5 L 265.5 299 Z " /><path fill="rgb(254,254,254)" stroke="rgb(254,254,254)" stroke-width="1" opacity="1" d="M 192 304 Q 195 303 194 306 Q 191 307 192 304 Z " /><path fill="rgb(254,254,254)" stroke="rgb(254,254,254)" stroke-width="1" opacity="1" d="M 197 304 L 200 305.5 L 196.5 310 Q 192.8 311 194 308 L 197 306.5 L 197 304 Z " /><path fill="rgb(254,254,254)" stroke="rgb(254,254,254)" stroke-width="1" opacity="1" d="M 306.5 305 L 308 308 Q 304.5 309.1 306.5 305 Z " /><path fill="rgb(254,254,254)" stroke="rgb(254,254,254)" stroke-width="1" opacity="1" d="M 214.5 308 Q 217.8 306.9 217 309.5 L 213 312 L 214.5 308 Z " /><path fill="rgb(254,254,254)" stroke="rgb(254,254,254)" stroke-width="1" opacity="1" d="M 222.5 308 Q 224.8 307.3 224 309.5 Q 221.3 310.8 221.5 315 L 217 312.5 L 222.5 308 Z " /><path fill="rgb(254,254,254)" stroke="rgb(254,254,254)" stroke-width="1" opacity="1" d="M 269.5 308 L 272 308.5 L 269.5 309 L 269.5 308 Z " /><path fill="rgb(254,254,254)" stroke="rgb(254,254,254)" stroke-width="1" opacity="1" d="M 308.5 310 L 309.5 313 L 311.5 310 L 314 313.5 L 312.5 314 L 310.5 313 L 310.5 315 Q 306.8 313.8 308.5 310 Z " /><path fill="rgb(254,254,254)" stroke="rgb(254,254,254)" stroke-width="1" opacity="1" d="M 316 310 Q 321.2 308.3 320 312 Q 314.8 313.7 316 310 Z " /><path fill="rgb(254,254,254)" stroke="rgb(254,254,254)" stroke-width="1" opacity="1" d="M 269.5 311 L 272 311.5 L 269.5 312 L 269.5 311 Z " /><path fill="rgb(254,254,254)" stroke="rgb(254,254,254)" stroke-width="1" opacity="1" d="M 191.5 314 L 192 316.5 L 191 316.5 L 191.5 314 Z " /><path fill="rgb(254,254,254)" stroke="rgb(254,254,254)" stroke-width="1" opacity="1" d="M 283.5 319 L 285.5 323 Q 288.1 322.3 287 325 L 283 323 L 283.5 319 Z " /><path fill="rgb(254,254,254)" stroke="rgb(254,254,254)" stroke-width="1" opacity="1" d="M 193.5 324 L 207 324.5 L 193.5 325 L 193.5 324 Z " /><path fill="rgb(254,254,254)" stroke="rgb(254,254,254)" stroke-width="1" opacity="1" d="M 280.5 324 L 284 325.5 L 283.5 327 L 280.5 324 Z " /><path fill="rgb(254,254,254)" stroke="rgb(254,254,254)" stroke-width="1" opacity="1" d="M 288.5 324 L 303 324.5 L 288.5 325 L 288.5 324 Z " /><path fill="rgb(254,254,254)" stroke="rgb(254,254,254)" stroke-width="1" opacity="1" d="M 305.5 324 L 319 324.5 L 305.5 325 L 305.5 324 Z " /><path fill="rgb(254,254,254)" stroke="rgb(254,254,254)" stroke-width="1" opacity="1" d="M 209.5 330 L 223.5 330 L 224 332 L 208 331.5 L 209.5 330 Z " /><path fill="rgb(254,254,254)" stroke="rgb(254,254,254)" stroke-width="1" opacity="1" d="M 499.5 497 L 500 500 L 497 499.5 L 499.5 497 Z " /><path fill="rgb(254,254,254)" stroke="rgb(254,254,254)" stroke-width="1" opacity="1" d="M 0.5 499 L 496 499.5 L 0.5 500 L 0.5 499 Z " /><path fill="rgb(255,255,255)" stroke="rgb(255,255,255)" stroke-width="1" opacity="1" d="M 0 0 L 499 0 L 499 495.5 L 500 496.5 L 496.5 500 L 495.5 499 L 0 499 L 0 0 Z M 256 143 Q 253 145 256 146 Q 259 145 256 143 Z M 176 144 L 176 146 L 179 145 L 176 144 Z M 186 144 L 184 146 L 186 146 L 186 144 Z M 209 144 Q 208 147 212 146 L 212 148 L 223 148 L 223 146 L 216 146 Q 214 143 209 144 Z M 248 144 L 250 146 Q 251 143 248 144 Z M 224 148 L 224 150 L 219 151 L 232 152 L 233 153 L 236 150 Q 241 152 240 148 Q 234 147 233 150 L 227 150 Q 227 147 224 148 Z M 229 148 L 229 149 L 232 149 L 229 148 Z M 245 148 L 243 150 L 245 152 L 249 149 L 245 148 Z M 254 148 L 256 151 L 257 150 Q 258 147 254 148 Z M 186 150 L 186 152 Q 191 153 192 151 L 186 150 Z M 207 150 L 207 151 L 213 151 L 207 150 Z M 181 152 L 178 155 Q 179 157 176 156 L 176 158 L 184 153 L 181 152 Z M 202 152 L 190 155 L 176 163 Q 166 170 161 182 L 156 196 L 154 207 L 154 229 Q 157 230 155 237 L 158 249 L 161 254 L 160 257 L 162 256 L 166 263 L 168 266 L 174 272 L 173 273 L 175 275 L 177 274 L 191 282 L 207 286 L 210 279 L 204 275 L 197 269 L 191 257 L 187 237 L 187 201 Q 190 199 188 193 L 192 177 L 197 168 Q 202 159 213 157 Q 219 155 221 158 L 224 158 Q 222 162 226 161 L 226 159 L 232 163 L 243 177 L 246 186 L 256 187 L 255 186 L 256 185 L 256 159 L 256 154 L 246 155 L 241 163 Q 234 156 224 153 L 219 152 L 202 152 Z M 240 152 L 240 154 L 237 155 L 239 158 L 242 154 Q 243 151 240 152 Z M 182 156 L 181 158 L 184 157 L 182 156 Z M 171 159 L 169 161 Q 168 164 172 162 Q 173 158 171 159 Z M 210 159 L 210 160 L 212 160 L 210 159 Z M 206 161 L 206 163 L 208 164 Q 209 160 206 161 Z M 167 162 L 166 165 Q 167 167 165 166 L 162 170 L 159 171 L 161 175 L 161 174 L 168 168 L 169 166 Q 170 161 167 162 Z M 228 162 L 227 164 Q 229 163 228 166 L 230 166 L 228 162 Z M 224 164 L 223 168 Q 227 169 228 167 L 224 164 Z M 206 166 L 205 168 Q 204 171 200 170 L 201 172 L 208 169 L 206 166 Z M 229 168 L 232 172 L 232 170 L 229 168 Z M 224 170 L 224 172 L 226 171 L 224 170 Z M 199 171 L 197 174 L 199 173 L 199 171 Z M 234 171 L 232 174 L 234 177 L 236 176 L 234 171 Z M 150 176 Q 149 181 153 179 Q 155 175 150 176 Z M 154 181 L 152 184 Q 153 186 150 185 L 149 182 Q 145 183 146 190 L 150 187 L 153 189 L 154 187 L 154 181 Z M 239 182 L 239 186 L 242 185 Q 243 180 239 182 Z M 242 185 L 242 188 L 241 187 L 239 188 L 242 189 L 243 190 Q 242 187 245 188 L 244 187 Q 245 184 242 185 Z M 153 190 L 151 195 Q 148 196 149 194 L 148 194 L 148 198 L 150 201 L 152 208 L 152 201 L 154 201 L 152 200 Q 151 197 154 196 L 153 190 Z M 147 191 Q 145 194 148 193 L 147 191 Z M 191 192 L 190 195 L 191 195 L 191 192 Z M 243 192 L 245 195 L 247 194 L 247 192 L 243 192 Z M 251 192 L 247 203 L 244 204 L 246 204 L 220 269 L 218 269 L 219 271 L 202 313 L 192 316 L 192 314 L 191 317 L 189 318 L 187 318 L 187 322 L 192 323 L 193 322 L 222 322 L 223 320 L 222 317 L 219 317 L 208 313 L 210 311 L 219 287 L 222 284 L 258 284 L 263 286 L 274 312 L 282 319 L 283 319 L 283 323 L 285 323 L 284 322 Q 283 319 286 320 Q 287 323 289 321 L 290 322 L 319 322 L 320 320 L 319 317 L 311 316 L 309 313 Q 310 309 307 310 L 308 307 L 306 305 L 292 273 L 292 271 L 290 267 Q 291 264 288 265 L 285 255 L 280 244 L 282 244 L 279 243 L 259 195 L 259 192 L 251 192 Z M 262 192 L 262 195 L 264 196 Q 265 191 262 192 Z M 270 192 Q 268 197 272 196 Q 274 191 270 192 Z M 243 196 L 243 198 Q 245 201 247 197 L 243 196 Z M 266 202 L 265 207 L 266 207 L 266 202 Z M 147 203 Q 144 210 149 208 L 147 203 Z M 145 204 L 144 208 L 145 208 L 145 204 Z M 189 206 L 188 209 L 189 209 L 189 206 Z M 267 207 L 269 212 L 269 209 L 267 207 Z M 151 219 L 150 224 L 151 224 L 151 219 Z M 144 220 Q 142 225 146 224 Q 148 219 144 220 Z M 237 221 L 236 224 L 237 224 L 237 221 Z M 228 224 L 226 226 L 226 230 L 232 235 L 233 232 L 232 228 Q 229 229 230 226 L 228 224 Z M 281 224 L 280 228 L 281 228 L 281 224 Z M 149 230 Q 147 233 144 232 L 146 236 L 147 240 L 149 233 Q 151 235 150 240 L 153 239 L 152 232 L 149 230 Z M 224 236 Q 222 241 226 240 Q 228 235 224 236 Z M 190 240 L 190 243 Q 192 246 193 243 Q 194 238 190 240 Z M 227 240 L 226 242 L 228 241 L 227 240 Z M 149 244 L 156 256 L 157 250 L 156 250 Q 157 252 154 251 L 152 246 Q 153 242 149 244 Z M 283 245 L 283 249 L 284 249 Q 285 244 283 245 Z M 144 248 L 144 253 L 146 254 Q 148 247 144 248 Z M 226 248 L 224 251 L 225 253 L 226 251 L 226 248 Z M 195 255 L 195 259 Q 193 260 196 261 L 196 259 L 200 260 L 200 256 L 195 255 Z M 202 256 L 203 258 L 206 258 L 202 256 Z M 207 256 L 206 259 L 208 259 L 209 264 L 210 264 L 210 256 L 207 256 Z M 293 256 L 290 259 L 293 267 L 294 267 L 294 257 L 293 256 Z M 303 257 L 302 260 L 303 260 L 303 257 Z M 197 261 L 199 264 L 199 263 L 197 261 Z M 201 261 L 199 265 L 201 265 L 202 266 Q 203 262 201 261 Z M 207 262 L 206 266 L 208 265 L 207 262 Z M 165 264 L 164 265 Q 161 264 162 268 L 166 269 L 166 267 L 165 264 Z M 169 270 L 170 272 Q 171 269 169 270 Z M 209 271 L 207 274 L 210 275 L 211 276 L 209 271 Z M 169 272 L 168 277 L 169 277 L 169 272 Z M 214 272 Q 213 275 216 274 Q 217 271 214 272 Z M 302 273 L 302 278 L 304 278 L 304 273 L 302 273 Z M 215 275 L 213 277 L 214 280 L 215 280 L 215 275 Z M 212 276 Q 209 280 213 279 L 212 276 Z M 176 277 Q 177 281 172 279 L 172 280 Q 177 281 179 279 L 176 277 Z M 182 280 L 183 282 L 188 283 L 188 282 Q 185 283 186 280 L 182 280 Z M 212 281 L 211 282 Q 208 281 209 284 L 213 283 Q 214 280 212 281 Z M 180 282 L 180 286 L 188 286 L 188 288 L 192 289 L 192 286 L 180 282 Z M 302 282 L 301 287 L 302 287 L 302 282 Z M 198 285 L 195 286 Q 193 290 198 289 L 199 286 L 201 287 L 202 287 Q 201 284 198 285 Z M 176 286 Q 175 289 179 288 Q 180 285 176 286 Z M 225 286 L 224 288 L 240 288 L 240 287 L 239 287 L 226 287 L 225 286 Z M 259 287 L 259 288 L 262 288 L 259 287 Z M 222 292 L 222 298 L 224 298 L 224 292 L 222 292 Z M 256 296 L 255 304 L 258 305 L 258 297 L 256 296 Z M 266 299 L 265 302 L 265 304 L 266 309 L 267 304 Q 268 300 266 299 Z M 192 304 Q 191 307 194 306 Q 195 303 192 304 Z M 197 304 L 197 307 L 194 308 Q 193 311 197 310 L 200 306 L 197 304 Z M 215 308 L 213 312 L 217 310 Q 218 307 215 308 Z M 223 308 L 217 313 L 222 315 Q 221 311 224 310 Q 225 307 223 308 Z M 270 308 L 270 309 L 272 309 L 270 308 Z M 312 310 L 310 313 L 313 314 L 314 314 L 312 310 Z M 316 310 Q 315 314 320 312 Q 321 308 316 310 Z M 270 311 L 270 312 L 273 312 L 270 311 Z M 285 323 Q 284 326 287 325 Q 288 322 285 323 Z M 194 324 L 194 325 L 207 325 L 194 324 Z M 281 324 L 284 327 L 284 326 L 281 324 Z M 289 324 L 289 325 L 303 325 L 289 324 Z M 306 324 L 306 325 L 319 325 L 306 324 Z M 210 330 L 208 332 L 224 332 L 224 330 L 210 330 Z " /><path fill="rgb(255,255,255)" stroke="rgb(255,255,255)" stroke-width="1" opacity="1" d="M 241.5 234 L 250 255.5 L 248 255.5 Q 247.3 257.8 249.5 257 Q 253.4 259.6 254 265.5 L 253 267.5 L 255 267.5 L 255.5 271 L 257 270.5 L 260 279 L 257.5 278 L 256.5 279 L 223 279 L 224.5 273 L 225.5 274 L 239 274 L 238 269.5 L 240.5 265 L 243 264.5 L 241.5 261 Q 236.3 259.3 238 264.5 L 236 266.5 Q 237 271 234.5 272 Q 230.8 272.8 230 270.5 L 233 261.5 L 233 257.5 L 232 257.5 L 232 260.5 L 229 264.5 L 228 270.5 L 226.5 272 L 225 271.5 L 235 249.5 L 238 239.5 L 241.5 234 Z M 240 243 L 237 248 L 238 250 L 240 246 L 240 243 Z M 237 254 L 237 256 L 239 255 L 237 254 Z M 251 259 L 250 262 L 251 262 L 251 259 Z M 248 264 L 243 269 Q 244 271 242 270 L 240 273 L 247 273 L 251 271 L 248 264 Z M 254 271 L 251 272 L 252 274 L 254 273 L 254 271 Z M 242 275 L 242 276 L 244 276 L 242 275 Z M 226 276 L 226 277 L 239 277 L 226 276 Z M 241 277 L 241 278 L 246 278 L 241 277 Z " /><path fill="rgb(89,96,29)" stroke="rgb(89,96,29)" stroke-width="1" opacity="1" d="M 208.5 152 L 223.5 154 L 232.5 158 L 240.5 164 L 246.5 157 Q 248.8 152.9 255 154 L 255 183.5 L 253.5 185 Q 246.5 186.5 247 183.5 L 237 166 L 225.5 158 L 218.5 156 L 211.5 156 Q 203 158.5 198 164.5 L 190 179.5 L 187 192.5 L 187 201.5 L 186 202.5 L 186 234.5 L 187 235.5 L 188 248.5 L 192 261.5 L 200 274 L 208 278 L 205.5 284 L 188.5 280 L 176.5 273 L 170 266.5 L 168 263.5 L 164 258.5 L 157 241.5 L 155 231.5 L 155 207.5 L 160 186.5 L 171 168 L 187.5 157 L 200.5 153 Q 206.8 154.8 208.5 152 Z " /><path fill="rgb(89,96,29)" stroke="rgb(89,96,29)" stroke-width="1" opacity="1" d="M 252.5 192 Q 258.6 190.8 258 193.5 L 309 316 L 318 319.5 L 316.5 322 L 315.5 321 L 288.5 321 Q 279.8 318.2 275 311.5 L 262.5 284 L 219.5 284 L 219 286.5 L 208 314 L 221 318 L 219.5 322 L 218.5 321 L 190.5 321 Q 189.3 323.3 188 320.5 Q 186.8 316.8 190.5 318 L 202 314 L 252.5 192 Z M 242 232 L 227 265 L 222 280 L 260 280 L 261 279 L 242 232 Z " /><path fill="rgb(89,96,29)" stroke="rgb(89,96,29)" stroke-width="1" opacity="1" d="M 247.5 266 L 249 269.5 Q 248 273 242.5 272 L 247.5 266 Z " /></svg>