<?xml version="1.0" standalone="no"?>
<!DOCTYPE svg PUBLIC "-//W3C//DTD SVG 20010904//EN"
 "http://www.w3.org/TR/2001/REC-SVG-20010904/DTD/svg10.dtd">
<svg version="1.0" xmlns="http://www.w3.org/2000/svg"
 width="500.000000pt" height="500.000000pt" viewBox="0 0 500.000000 500.000000"
 preserveAspectRatio="xMidYMid meet">

<g transform="translate(0.000000,500.000000) scale(0.100000,-0.100000)"
fill="#000000" stroke="none">
<path d="M3146 3478 c-17 -26 -113 -256 -596 -1428 -90 -217 -192 -465 -228
-550 -35 -85 -84 -202 -107 -260 -118 -288 -277 -666 -285 -674 -5 -5 -55 -26
-112 -48 -257 -96 -239 -88 -236 -117 l3 -26 403 -3 403 -2 -3 31 c-3 31 -7
33 -161 94 -87 35 -160 65 -163 67 -4 5 15 55 111 288 26 63 76 185 111 270
l63 155 532 0 532 0 44 -105 c217 -514 233 -543 334 -641 35 -33 89 -71 133
-93 116 -58 184 -66 528 -66 l299 0 -3 31 c-3 31 -6 33 -103 61 -55 16 -105
35 -111 41 -7 7 -74 161 -149 342 -76 182 -157 377 -182 435 -24 58 -60 141
-78 185 -43 101 -381 909 -465 1110 -34 83 -82 195 -105 250 -24 55 -96 226
-160 380 -65 154 -122 283 -129 287 -6 4 -32 8 -58 8 -38 0 -50 -4 -62 -22z
m-146 -1210 c62 -150 143 -345 180 -433 38 -88 93 -220 124 -293 31 -74 56
-140 56 -148 0 -12 -71 -14 -480 -14 -318 0 -480 3 -480 10 0 9 29 80 135 335
18 44 51 123 72 175 217 523 267 640 273 640 4 0 58 -123 120 -272z"/>
</g>
</svg>
